<svg width="192" height="60" viewBox="0 0 192 60" fill="none" xmlns="http://www.w3.org/2000/svg">
    <path d="M9.48061 10.7116H3.36085L1.98641 14.4945H0L5.57801 0H7.26345L12.8515 14.4945H10.8751L9.48061 10.7116ZM3.94273 9.13871H8.90877L6.42073 2.35934L3.94273 9.13871Z"
          fill="#525E54"/>
    <path d="M23.3955 14.4945H21.5396V9.89529H16.5535V14.4945H14.6874V3.72318H16.5535V8.39208H21.5396V3.72318H23.3955V14.4945Z"
          fill="#525E54"/>
    <path d="M34.4512 5.21643H30.8095V14.4945H28.9535V5.21643H25.382V3.72318H34.4512V5.21643Z" fill="#525E54"/>
    <path d="M43.2798 3.72318H45.1357V14.4945H43.2798V6.64L38.2736 14.4945H36.4176V3.72318H38.2736V11.5876L43.2798 3.72318Z"
          fill="#525E54"/>
    <path d="M54.3656 12.0555L58.0575 3.72318H60.375V14.4945H58.519V6.65991L55.0076 14.4945H53.7235L50.1419 6.49067V14.4945H48.2859V3.72318H50.6937L54.3656 12.0555Z"
          fill="#525E54"/>
    <path d="M62.873 9.00929C62.873 7.95406 63.0804 7.00501 63.495 6.16216C63.9164 5.3193 64.4983 4.6689 65.2407 4.21097C65.9898 3.75304 66.8425 3.52408 67.7989 3.52408C69.277 3.52408 70.4709 4.03178 71.3805 5.04719C72.2968 6.06261 72.7549 7.41317 72.7549 9.09889V9.2283C72.7549 10.2769 72.5509 11.2193 72.143 12.0555C71.7417 12.8851 71.1631 13.5322 70.4074 13.9968C69.6583 14.4613 68.7955 14.6936 67.819 14.6936C66.3476 14.6936 65.1537 14.1859 64.2374 13.1705C63.3278 12.1551 62.873 10.8111 62.873 9.13871V9.00929ZM64.7391 9.2283C64.7391 10.4229 65.0166 11.3819 65.5717 12.1053C66.1336 12.8287 66.8826 13.1904 67.819 13.1904C68.762 13.1904 69.5111 12.8254 70.0663 12.0953C70.6214 11.3587 70.8989 10.33 70.8989 9.00929C70.8989 7.82796 70.6147 6.87228 70.0462 6.14225C69.4844 5.40557 68.7353 5.03724 67.7989 5.03724C66.8826 5.03724 66.1436 5.39894 65.5818 6.12234C65.02 6.84573 64.7391 7.88106 64.7391 9.2283Z"
          fill="#525E54"/>
    <path d="M83.9511 14.4945H82.0951V9.89529H77.109V14.4945H75.243V3.72318H77.109V8.39208H82.0951V3.72318H83.9511V14.4945Z"
          fill="#525E54"/>
    <path d="M86.4492 9.00929C86.4492 7.95406 86.6565 7.00501 87.0712 6.16216C87.4925 5.3193 88.0744 4.6689 88.8168 4.21097C89.5659 3.75304 90.4186 3.52408 91.3751 3.52408C92.8532 3.52408 94.047 4.03178 94.9566 5.04719C95.8729 6.06261 96.3311 7.41317 96.3311 9.09889V9.2283C96.3311 10.2769 96.1271 11.2193 95.7191 12.0555C95.3178 12.8851 94.7393 13.5322 93.9835 13.9968C93.2344 14.4613 92.3716 14.6936 91.3951 14.6936C89.9237 14.6936 88.7299 14.1859 87.8136 13.1705C86.904 12.1551 86.4492 10.8111 86.4492 9.13871V9.00929ZM88.3152 9.2283C88.3152 10.4229 88.5928 11.3819 89.1479 12.1053C89.7097 12.8287 90.4588 13.1904 91.3951 13.1904C92.3382 13.1904 93.0873 12.8254 93.6424 12.0953C94.1975 11.3587 94.4751 10.33 94.4751 9.00929C94.4751 7.82796 94.1908 6.87228 93.6223 6.14225C93.0605 5.40557 92.3114 5.03724 91.3751 5.03724C90.4588 5.03724 89.7197 5.39894 89.1579 6.12234C88.5961 6.84573 88.3152 7.88106 88.3152 9.2283Z"
          fill="#525E54"/>
    <path d="M107.537 14.4945H105.681V5.24629H100.685V14.4945H98.8191V3.72318H107.537V14.4945Z" fill="#525E54"/>
    <path d="M110.025 9.00929C110.025 7.95406 110.233 7.00501 110.647 6.16216C111.069 5.3193 111.651 4.6689 112.393 4.21097C113.142 3.75304 113.995 3.52408 114.951 3.52408C116.429 3.52408 117.623 4.03178 118.533 5.04719C119.449 6.06261 119.907 7.41317 119.907 9.09889V9.2283C119.907 10.2769 119.703 11.2193 119.295 12.0555C118.894 12.8851 118.315 13.5322 117.56 13.9968C116.811 14.4613 115.948 14.6936 114.971 14.6936C113.5 14.6936 112.306 14.1859 111.39 13.1705C110.48 12.1551 110.025 10.8111 110.025 9.13871V9.00929ZM111.891 9.2283C111.891 10.4229 112.169 11.3819 112.724 12.1053C113.286 12.8287 114.035 13.1904 114.971 13.1904C115.914 13.1904 116.663 12.8254 117.219 12.0953C117.774 11.3587 118.051 10.33 118.051 9.00929C118.051 7.82796 117.767 6.87228 117.198 6.14225C116.637 5.40557 115.888 5.03724 114.951 5.03724C114.035 5.03724 113.296 5.39894 112.734 6.12234C112.172 6.84573 111.891 7.88106 111.891 9.2283Z"
          fill="#525E54"/>
    <path d="M130.973 3.72318V14.4945H129.107V5.24629H125.415L125.194 9.27808C125.074 11.1297 124.76 12.4537 124.251 13.2501C123.75 14.0465 122.95 14.4613 121.853 14.4945H121.111V12.8718L121.643 12.832C122.245 12.7657 122.676 12.4205 122.937 11.7967C123.198 11.1728 123.365 10.0181 123.439 8.33235L123.639 3.72318H130.973Z"
          fill="#525E54"/>
    <path d="M135.979 7.4364H138.798C140.029 7.44967 141.002 7.76823 141.718 8.39208C142.433 9.01593 142.791 9.8621 142.791 10.9306C142.791 12.0058 142.423 12.8685 141.688 13.5189C140.952 14.1693 139.962 14.4945 138.718 14.4945H134.123V3.72318H135.979V7.4364ZM135.979 8.93961V12.9913H138.738C139.434 12.9913 139.972 12.8154 140.353 12.4637C140.734 12.1053 140.925 11.6175 140.925 11.0003C140.925 10.403 140.738 9.9152 140.363 9.53691C139.995 9.15198 139.477 8.95288 138.808 8.93961H135.979Z"
          fill="#525E54"/>
    <path d="M153.977 14.4945H152.121V9.89529H147.135V14.4945H145.269V3.72318H147.135V8.39208H152.121V3.72318H153.977V14.4945Z"
          fill="#525E54"/>
    <path d="M156.475 9.00929C156.475 7.95406 156.683 7.00501 157.097 6.16216C157.519 5.3193 158.101 4.6689 158.843 4.21097C159.592 3.75304 160.445 3.52408 161.401 3.52408C162.879 3.52408 164.073 4.03178 164.983 5.04719C165.899 6.06261 166.357 7.41317 166.357 9.09889V9.2283C166.357 10.2769 166.153 11.2193 165.745 12.0555C165.344 12.8851 164.765 13.5322 164.01 13.9968C163.261 14.4613 162.398 14.6936 161.421 14.6936C159.95 14.6936 158.756 14.1859 157.84 13.1705C156.93 12.1551 156.475 10.8111 156.475 9.13871V9.00929ZM158.341 9.2283C158.341 10.4229 158.619 11.3819 159.174 12.1053C159.736 12.8287 160.485 13.1904 161.421 13.1904C162.364 13.1904 163.113 12.8254 163.669 12.0953C164.224 11.3587 164.501 10.33 164.501 9.00929C164.501 7.82796 164.217 6.87228 163.648 6.14225C163.087 5.40557 162.338 5.03724 161.401 5.03724C160.485 5.03724 159.746 5.39894 159.184 6.12234C158.622 6.84573 158.341 7.88106 158.341 9.2283Z"
          fill="#525E54"/>
    <path d="M174.935 12.0555L178.627 3.72318H180.944V14.4945H179.088V6.65991L175.577 14.4945H174.293L170.711 6.49067V14.4945H168.855V3.72318H171.263L174.935 12.0555Z"
          fill="#525E54"/>
    <path d="M187.485 11.7967L190.014 3.72318H192L187.636 16.157C186.96 17.9489 185.887 18.8448 184.416 18.8448L184.064 18.815L183.372 18.6856V17.1923L183.874 17.2321C184.502 17.2321 184.991 17.106 185.338 16.8538C185.693 16.6017 185.984 16.1404 186.211 15.4701L186.623 14.375L182.75 3.72318H184.777L187.485 11.7967Z"
          fill="#525E54"/>
    <path d="M3.34079 31.4733V37.1477H1.41457V22.6532H6.80196C8.40046 22.6532 9.65117 23.058 10.5541 23.8677C11.4637 24.6774 11.9185 25.7492 11.9185 27.0832C11.9185 28.4902 11.4737 29.5753 10.5842 30.3385C9.70133 31.0951 8.4339 31.4733 6.7819 31.4733H3.34079ZM3.34079 29.9104H6.80196C7.83196 29.9104 8.62117 29.6715 9.16961 29.1936C9.71805 28.7092 9.99227 28.0123 9.99227 27.1031C9.99227 26.2403 9.71805 25.5501 9.16961 25.0324C8.62117 24.5148 7.86874 24.246 6.91232 24.2261H3.34079V29.9104Z"
          fill="#525E54"/>
    <path d="M18.4496 37.3468C16.9782 37.3468 15.781 36.869 14.858 35.9133C13.935 34.951 13.4735 33.6668 13.4735 32.0607V31.7222C13.4735 30.6537 13.6775 29.7013 14.0855 28.8651C14.5002 28.0223 15.0753 27.3652 15.8111 26.894C16.5535 26.4162 17.356 26.1773 18.2188 26.1773C19.6301 26.1773 20.7269 26.6385 21.5095 27.561C22.292 28.4835 22.6832 29.8042 22.6832 31.5231V32.2897H15.3295C15.3563 33.3515 15.6673 34.211 16.2625 34.868C16.8645 35.5184 17.6269 35.8436 18.5499 35.8436C19.2053 35.8436 19.7605 35.7109 20.2153 35.4454C20.6701 35.1799 21.068 34.8282 21.4091 34.3902L22.5428 35.2662C21.6332 36.6533 20.2688 37.3468 18.4496 37.3468ZM18.2188 27.6904C17.4697 27.6904 16.841 27.9625 16.3327 28.5067C15.8244 29.0443 15.5101 29.8009 15.3897 30.7765H20.8273V30.6371C20.7737 29.7013 20.5196 28.978 20.0648 28.4669C19.61 27.9493 18.9947 27.6904 18.2188 27.6904Z"
          fill="#525E54"/>
    <path d="M31.8529 27.8995H26.8467V37.1477H24.9807V26.3764H31.8529V27.8995Z" fill="#525E54"/>
    <path d="M37.0195 34.4499L39.5477 26.3764H41.5341L37.17 38.8102C36.4945 40.6021 35.421 41.498 33.9496 41.498L33.5985 41.4682L32.9063 41.3388V39.8455L33.4079 39.8853C34.0366 39.8853 34.5248 39.7592 34.8726 39.507C35.2271 39.2548 35.518 38.7936 35.7454 38.1233L36.1568 37.0282L32.2843 26.3764H34.3108L37.0195 34.4499Z"
          fill="#525E54"/>
    <path d="M51.6769 26.3764V37.1477H49.8108V27.8995H46.1189L45.8982 31.9313C45.7778 33.7829 45.4635 35.1069 44.9552 35.9033C44.4535 36.6997 43.6543 37.1145 42.5574 37.1477H41.815V35.525L42.3467 35.4852C42.9487 35.4188 43.3801 35.0737 43.6409 34.4499C43.9018 33.826 44.069 32.6713 44.1425 30.9855L44.3432 26.3764H51.6769Z"
          fill="#525E54"/>
    <path d="M61.6792 26.3764H63.5352V37.1477H61.6792V29.2932L56.673 37.1477H54.817V26.3764H56.673V34.2408L61.6792 26.3764Z"
          fill="#525E54"/>
    <path d="M75.6844 31.8815C75.6844 33.5208 75.3065 34.8415 74.5507 35.8436C73.795 36.8457 72.7717 37.3468 71.4808 37.3468C70.1632 37.3468 69.1266 36.932 68.3708 36.1024V41.289H66.5148V26.3764H68.2103L68.3006 27.571C69.0563 26.6418 70.1064 26.1773 71.4507 26.1773C72.7549 26.1773 73.7849 26.6651 74.5407 27.6407C75.3032 28.6163 75.6844 29.9735 75.6844 31.7123V31.8815ZM73.8284 31.6724C73.8284 30.4579 73.5676 29.4989 73.0459 28.7954C72.5242 28.092 71.8085 27.7402 70.8989 27.7402C69.7753 27.7402 68.9326 28.2346 68.3708 29.2235V34.3703C68.9259 35.3525 69.7753 35.8436 70.919 35.8436C71.8085 35.8436 72.5142 35.4952 73.0358 34.7983C73.5642 34.0948 73.8284 33.0529 73.8284 31.6724Z"
          fill="#525E54"/>
    <path d="M77.5605 31.6625C77.5605 30.6073 77.7678 29.6582 78.1825 28.8154C78.6038 27.9725 79.1857 27.3221 79.9281 26.8642C80.6772 26.4062 81.5299 26.1773 82.4864 26.1773C83.9645 26.1773 85.1583 26.685 86.0679 27.7004C86.9842 28.7158 87.4424 30.0664 87.4424 31.7521V31.8815C87.4424 32.9301 87.2384 33.8725 86.8304 34.7087C86.4291 35.5383 85.8506 36.1854 85.0948 36.65C84.3457 37.1145 83.4829 37.3468 82.5064 37.3468C81.035 37.3468 79.8411 36.8391 78.9249 35.8237C78.0153 34.8083 77.5605 33.4643 77.5605 31.7919V31.6625ZM79.4265 31.8815C79.4265 33.0761 79.704 34.0351 80.2592 34.7585C80.821 35.4819 81.5701 35.8436 82.5064 35.8436C83.4495 35.8436 84.1986 35.4786 84.7537 34.7485C85.3088 34.0119 85.5864 32.9832 85.5864 31.6625C85.5864 30.4812 85.3021 29.5255 84.7336 28.7954C84.1718 28.0588 83.4227 27.6904 82.4864 27.6904C81.5701 27.6904 80.831 28.0521 80.2692 28.7755C79.7074 29.4989 79.4265 30.5343 79.4265 31.8815Z"
          fill="#525E54"/>
    <path d="M89.9404 37.1477V26.3764H94.1741C95.6188 26.3764 96.7257 26.6286 97.4948 27.133C98.2707 27.6307 98.6586 28.3641 98.6586 29.333C98.6586 29.8308 98.5081 30.2821 98.2071 30.6869C97.9062 31.0851 97.4614 31.3904 96.8728 31.6028C97.5283 31.7554 98.0533 32.0541 98.4479 32.4987C98.8492 32.9434 99.0499 33.4743 99.0499 34.0915C99.0499 35.0804 98.682 35.837 97.9463 36.3613C97.2173 36.8856 96.1839 37.1477 94.8463 37.1477H89.9404ZM91.7964 32.4191V35.6644H94.8663C95.6422 35.6644 96.2207 35.5217 96.6019 35.2363C96.9899 34.951 97.1838 34.5494 97.1838 34.0318C97.1838 32.9566 96.3879 32.4191 94.7961 32.4191H91.7964ZM91.7964 30.9457H94.1942C95.9331 30.9457 96.8026 30.4413 96.8026 29.4326C96.8026 28.4238 95.9799 27.9028 94.3346 27.8696H91.7964V30.9457Z"
          fill="#525E54"/>
    <path d="M108.209 37.1477C108.102 36.9353 108.015 36.557 107.949 36.0128C107.086 36.9021 106.056 37.3468 104.859 37.3468C103.788 37.3468 102.909 37.0482 102.22 36.4509C101.538 35.8469 101.197 35.0837 101.197 34.1612C101.197 33.0396 101.625 32.1702 102.481 31.553C103.344 30.9291 104.554 30.6172 106.113 30.6172H107.918V29.771C107.918 29.1273 107.725 28.6163 107.337 28.238C106.949 27.853 106.377 27.6606 105.621 27.6606C104.959 27.6606 104.404 27.8265 103.956 28.1583C103.508 28.4902 103.284 28.8917 103.284 29.3629H101.417C101.417 28.8253 101.608 28.3076 101.989 27.8099C102.377 27.3055 102.899 26.9073 103.554 26.6153C104.217 26.3233 104.942 26.1773 105.731 26.1773C106.982 26.1773 107.962 26.4892 108.671 27.113C109.38 27.7303 109.748 28.5831 109.774 29.6715V34.6291C109.774 35.6179 109.902 36.4044 110.156 36.9884V37.1477H108.209ZM105.129 35.744C105.711 35.744 106.263 35.5947 106.785 35.2961C107.307 34.9974 107.684 34.6092 107.918 34.1313V31.9213H106.464C104.19 31.9213 103.053 32.5817 103.053 33.9024C103.053 34.4798 103.247 34.931 103.635 35.2562C104.023 35.5814 104.521 35.744 105.129 35.744Z"
          fill="#525E54"/>
    <path d="M121.553 37.1477H119.697V32.5485H114.71V37.1477H112.844V26.3764H114.71V31.0453H119.697V26.3764H121.553V37.1477Z"
          fill="#525E54"/>
    <path d="M131.565 26.3764H133.421V37.1477H131.565V29.2932L126.559 37.1477H124.703V26.3764H126.559V34.2408L131.565 26.3764Z"
          fill="#525E54"/>
    <path d="M138.427 30.9457H141.035C141.176 29.5122 141.688 28.3607 142.57 27.4913C143.46 26.6153 144.58 26.1773 145.931 26.1773C147.349 26.1773 148.51 26.6518 149.412 27.6008C150.315 28.5499 150.804 29.7843 150.877 31.3041L150.887 31.8815C150.887 32.9301 150.68 33.8758 150.265 34.7187C149.851 35.5615 149.269 36.2119 148.52 36.6699C147.771 37.1212 146.914 37.3468 145.951 37.3468C144.553 37.3468 143.41 36.8955 142.52 35.9929C141.631 35.0837 141.132 33.9057 141.025 32.4589H138.427V37.1477H136.571V26.3764H138.427V30.9457ZM142.861 31.8815C142.861 33.0761 143.139 34.0351 143.694 34.7585C144.256 35.4819 145.008 35.8436 145.951 35.8436C146.894 35.8436 147.64 35.4753 148.189 34.7386C148.744 34.0019 149.021 32.9766 149.021 31.6625C149.021 30.4878 148.74 29.5321 148.178 28.7954C147.617 28.0588 146.868 27.6904 145.931 27.6904C145.008 27.6904 144.266 28.0521 143.704 28.7755C143.142 29.4989 142.861 30.5343 142.861 31.8815Z"
          fill="#525E54"/>
    <path d="M1.0233 59.8009V49.0296H5.55795C7.03605 49.0296 8.16971 49.2884 8.95893 49.8061C9.74815 50.3237 10.1428 51.067 10.1428 52.036C10.1428 52.5337 9.97555 52.9817 9.64113 53.3799C9.31341 53.7715 8.83185 54.0734 8.19647 54.2858C8.97231 54.4318 9.58094 54.7205 10.0224 55.1519C10.4705 55.5767 10.6945 56.1009 10.6945 56.7248C10.6945 57.7269 10.3133 58.4902 9.55084 59.0145C8.79507 59.5387 7.69485 59.8009 6.25018 59.8009H1.0233ZM3.92267 55.3311V57.5013H6.26022C7.28352 57.5013 7.79517 57.1462 7.79517 56.4361C7.79517 55.7127 7.30693 55.3444 6.33044 55.3311H3.92267ZM3.92267 53.3998H5.71847C6.73508 53.3865 7.24339 53.0613 7.24339 52.4242C7.24339 52.0327 7.10294 51.7539 6.82203 51.588C6.54781 51.4221 6.12645 51.3391 5.55795 51.3391H3.92267V53.3998Z"
          fill="#525E54"/>
    <path d="M20.7871 54.694V59.8009H17.7774V45.3064H23.4758C24.5727 45.3064 25.5358 45.5055 26.3651 45.9037C27.2012 46.3019 27.8432 46.8693 28.2914 47.606C28.7395 48.336 28.9635 49.1689 28.9635 50.1047C28.9635 51.525 28.4719 52.6466 27.4888 53.4695C26.5123 54.2858 25.1579 54.694 23.4256 54.694H20.7871ZM20.7871 52.2749H23.4758C24.2717 52.2749 24.877 52.0891 25.2917 51.7174C25.713 51.3458 25.9237 50.8148 25.9237 50.1246C25.9237 49.4145 25.713 48.8404 25.2917 48.4024C24.8703 47.9644 24.2884 47.7387 23.546 47.7255H20.7871V52.2749Z"
          fill="#525E54"/>
    <path d="M30.2577 54.3157C30.2577 53.2472 30.465 52.2948 30.8797 51.4586C31.2944 50.6224 31.8896 49.9753 32.6655 49.5174C33.448 49.0594 34.3543 48.8305 35.3843 48.8305C36.849 48.8305 38.0428 49.2751 38.9658 50.1644C39.8955 51.0538 40.4138 52.2616 40.5208 53.7881L40.5409 54.5247C40.5409 56.1773 40.0761 57.5046 39.1464 58.5067C38.2167 59.5022 36.9694 60 35.4043 60C33.8393 60 32.5886 59.5022 31.6522 58.5067C30.7225 57.5112 30.2577 56.1574 30.2577 54.4451V54.3157ZM33.1571 54.5247C33.1571 55.5468 33.351 56.3299 33.7389 56.8741C34.1269 57.4117 34.682 57.6805 35.4043 57.6805C36.1066 57.6805 36.655 57.415 37.0496 56.8841C37.4442 56.3465 37.6416 55.4904 37.6416 54.3157C37.6416 53.3135 37.4442 52.5371 37.0496 51.9862C36.655 51.4354 36.0999 51.1599 35.3843 51.1599C34.6753 51.1599 34.1269 51.4354 33.7389 51.9862C33.351 52.5304 33.1571 53.3766 33.1571 54.5247Z"
          fill="#525E54"/>
    <path d="M46.8413 57.6805C47.3763 57.6805 47.8111 57.5345 48.1455 57.2425C48.4799 56.9504 48.6538 56.5622 48.6672 56.0777H51.3859C51.3792 56.8078 51.1786 57.4781 50.784 58.0886C50.3894 58.6926 49.8476 59.1638 49.1587 59.5022C48.4765 59.8341 47.7208 60 46.8914 60C45.3397 60 44.1158 59.5122 43.2196 58.5366C42.3233 57.5544 41.8752 56.2005 41.8752 54.475V54.2858C41.8752 52.6266 42.32 51.3026 43.2095 50.3138C44.0991 49.3249 45.3197 48.8305 46.8714 48.8305C48.2291 48.8305 49.3159 49.2154 50.1319 49.9852C50.9545 50.7485 51.3726 51.7672 51.3859 53.0414H48.6672C48.6538 52.484 48.4799 52.0327 48.1455 51.6876C47.8111 51.3358 47.3696 51.1599 46.8212 51.1599C46.1457 51.1599 45.634 51.4055 45.2862 51.8966C44.9451 52.3811 44.7746 53.1709 44.7746 54.2659V54.5646C44.7746 55.6729 44.9451 56.4693 45.2862 56.9538C45.6273 57.4382 46.1457 57.6805 46.8413 57.6805Z"
          fill="#525E54"/>
    <path d="M57.5559 57.6805C58.0909 57.6805 58.5257 57.5345 58.8601 57.2425C59.1945 56.9504 59.3684 56.5622 59.3818 56.0777H62.1005C62.0938 56.8078 61.8932 57.4781 61.4986 58.0886C61.104 58.6926 60.5622 59.1638 59.8733 59.5022C59.1911 59.8341 58.4354 60 57.606 60C56.0543 60 54.8304 59.5122 53.9342 58.5366C53.0379 57.5544 52.5898 56.2005 52.5898 54.475V54.2858C52.5898 52.6266 53.0346 51.3026 53.9241 50.3138C54.8137 49.3249 56.0343 48.8305 57.586 48.8305C58.9437 48.8305 60.0305 49.2154 60.8465 49.9852C61.6691 50.7485 62.0872 51.7672 62.1005 53.0414H59.3818C59.3684 52.484 59.1945 52.0327 58.8601 51.6876C58.5257 51.3358 58.0842 51.1599 57.5358 51.1599C56.8603 51.1599 56.3486 51.4055 56.0008 51.8966C55.6597 52.3811 55.4892 53.1709 55.4892 54.2659V54.5646C55.4892 55.6729 55.6597 56.4693 56.0008 56.9538C56.3419 57.4382 56.8603 57.6805 57.5559 57.6805Z"
          fill="#525E54"/>
    <path d="M70.297 49.0296H73.1964V59.8009H70.297V53.1509L66.6653 59.8009H63.7559V49.0296H66.6653V55.6696L70.297 49.0296Z"
          fill="#525E54"/>
    <path d="M81.9546 49.0296H84.854V59.8009H81.9546V53.1509L78.3229 59.8009H75.4135V49.0296H78.3229V55.6696L81.9546 49.0296Z"
          fill="#525E54"/>
</svg>
