<svg width="270" height="65" viewBox="0 0 270 65" fill="none" xmlns="http://www.w3.org/2000/svg">
    <path d="M43.7662 62.6168H41.568V56.3286H40.0232C39.9383 57.2451 39.8239 58.1781 39.6799 59.1277C39.5397 60.0772 39.405 60.7434 39.2758 61.1262C39.1466 61.509 38.9823 61.8145 38.783 62.0426C38.5873 62.2672 38.3437 62.4383 38.0521 62.5561C37.7605 62.6702 37.408 62.7272 36.9946 62.7272C36.6808 62.7272 36.3947 62.6867 36.1364 62.6058V60.9219C36.3578 60.9955 36.5387 61.0323 36.679 61.0323C36.8709 61.0323 37.0167 60.9532 37.1164 60.795C37.2197 60.633 37.3139 60.3606 37.3988 59.9779C37.4837 59.5914 37.6018 58.8774 37.7531 57.8358C37.9045 56.7905 38.0447 55.6937 38.1739 54.5454H43.7662V62.6168Z"
          fill="white"/>
    <path d="M53.7292 62.6168H48.9232V54.5454H53.7292V56.2955H51.1103V57.5653H53.5354V59.3154H51.1103V60.8391H53.7292V62.6168Z"
          fill="white"/>
    <path d="M62.1198 62.6168H59.9327V56.3286H57.956V54.5454H64.0909V56.3286H62.1198V62.6168Z" fill="white"/>
    <path d="M31.9605 14.8677C31.9605 18.7877 30.9869 22.0916 29.0398 24.7796C27.1205 27.4675 24.478 29.3015 21.1123 30.2815V30.6175C24.9509 31.2335 27.9133 32.7734 29.9995 35.2374C32.1135 37.7014 33.1705 41.0053 33.1705 45.1492C33.1705 50.8891 31.3903 55.4811 27.8298 58.925C24.2972 62.3689 19.5546 64.0909 13.602 64.0909C8.26133 64.0909 3.72733 63.1109 0 61.151V50.9031C1.83585 52.0511 3.82469 52.9331 5.96651 53.5491C8.10834 54.1931 10.1667 54.5151 12.1416 54.5151C18.6506 54.5151 21.905 51.2811 21.905 44.8132C21.905 41.6773 20.9315 39.3253 18.9844 37.7574C17.0651 36.1614 14.2974 35.3634 10.6813 35.3634H7.21823V26.8375H10.5144C13.7967 26.8375 16.3279 26.0396 18.1082 24.4436C19.8884 22.8476 20.7785 20.4677 20.7785 17.3037C20.7785 14.8677 20.2083 12.9918 19.0678 11.6758C17.9552 10.3598 16.3697 9.70184 14.3113 9.70184C11.029 9.70184 7.96926 11.0598 5.13204 13.7758L0 6.1739C4.08894 2.05796 9.27661 0 15.563 0C20.6811 0 24.6866 1.32998 27.5795 3.98993C30.5002 6.62189 31.9605 10.2478 31.9605 14.8677Z"
          fill="url(#paint0_radial)"/>
    <path d="M68.1818 24.6956C68.1818 33.3754 66.8467 39.6613 64.1763 43.5533C61.506 47.4172 57.2641 49.3492 51.4505 49.3492C45.637 49.3492 41.4229 47.4032 38.8082 43.5113C36.1935 39.5913 34.8862 33.3194 34.8862 24.6956C34.8862 16.1557 36.2352 9.91183 38.9334 5.9639C41.6593 1.98797 45.8595 0 51.534 0C57.3753 0 61.6034 1.93197 64.2181 5.7959C66.8606 9.65984 68.1818 15.9597 68.1818 24.6956ZM46.2351 24.6956C46.2351 30.4635 46.6106 34.3974 47.3616 36.4974C48.1126 38.5973 49.5034 39.6473 51.534 39.6473C53.5646 39.6473 54.9693 38.6393 55.7481 36.6234C56.527 34.5794 56.9164 30.6035 56.9164 24.6956C56.9164 18.9557 56.513 15.0217 55.7064 12.8938C54.9275 10.7658 53.5367 9.70184 51.534 9.70184C49.5034 9.70184 48.1126 10.7658 47.3616 12.8938C46.6106 14.9937 46.2351 18.9277 46.2351 24.6956Z"
          fill="url(#paint1_radial)"/>
    <path d="M87.4806 13.7116H81.3609L79.9864 17.4945H78L83.578 3H85.2635L90.8515 17.4945H88.8751L87.4806 13.7116ZM81.9427 12.1387H86.9088L84.4207 5.35934L81.9427 12.1387Z"
          fill="#66AAAA"/>
    <path d="M101.396 17.4945H99.5396V12.8953H94.5535V17.4945H92.6874V6.72318H94.5535V11.3921H99.5396V6.72318H101.396V17.4945Z"
          fill="#66AAAA"/>
    <path d="M112.451 8.21643H108.809V17.4945H106.953V8.21643H103.382V6.72318H112.451V8.21643Z" fill="#66AAAA"/>
    <path d="M121.28 6.72318H123.136V17.4945H121.28V9.64L116.274 17.4945H114.418V6.72318H116.274V14.5876L121.28 6.72318Z"
          fill="#66AAAA"/>
    <path d="M132.366 15.0555L136.057 6.72318H138.375V17.4945H136.519V9.65991L133.008 17.4945H131.723L128.142 9.49067V17.4945H126.286V6.72318H128.694L132.366 15.0555Z"
          fill="#66AAAA"/>
    <path d="M140.873 12.0093C140.873 10.9541 141.08 10.005 141.495 9.16216C141.916 8.3193 142.498 7.6689 143.241 7.21097C143.99 6.75304 144.843 6.52408 145.799 6.52408C147.277 6.52408 148.471 7.03178 149.381 8.04719C150.297 9.06261 150.755 10.4132 150.755 12.0989V12.2283C150.755 13.2769 150.551 14.2193 150.143 15.0555C149.742 15.8851 149.163 16.5322 148.407 16.9968C147.658 17.4613 146.795 17.6936 145.819 17.6936C144.348 17.6936 143.154 17.1859 142.237 16.1705C141.328 15.1551 140.873 13.8111 140.873 12.1387V12.0093ZM142.739 12.2283C142.739 13.4229 143.017 14.3819 143.572 15.1053C144.134 15.8287 144.883 16.1904 145.819 16.1904C146.762 16.1904 147.511 15.8254 148.066 15.0953C148.621 14.3587 148.899 13.33 148.899 12.0093C148.899 10.828 148.615 9.87228 148.046 9.14225C147.484 8.40557 146.735 8.03724 145.799 8.03724C144.883 8.03724 144.144 8.39894 143.582 9.12234C143.02 9.84573 142.739 10.8811 142.739 12.2283Z"
          fill="#66AAAA"/>
    <path d="M161.951 17.4945H160.095V12.8953H155.109V17.4945H153.243V6.72318H155.109V11.3921H160.095V6.72318H161.951V17.4945Z"
          fill="#66AAAA"/>
    <path d="M164.449 12.0093C164.449 10.9541 164.656 10.005 165.071 9.16216C165.493 8.3193 166.074 7.6689 166.817 7.21097C167.566 6.75304 168.419 6.52408 169.375 6.52408C170.853 6.52408 172.047 7.03178 172.957 8.04719C173.873 9.06261 174.331 10.4132 174.331 12.0989V12.2283C174.331 13.2769 174.127 14.2193 173.719 15.0555C173.318 15.8851 172.739 16.5322 171.983 16.9968C171.234 17.4613 170.372 17.6936 169.395 17.6936C167.924 17.6936 166.73 17.1859 165.814 16.1705C164.904 15.1551 164.449 13.8111 164.449 12.1387V12.0093ZM166.315 12.2283C166.315 13.4229 166.593 14.3819 167.148 15.1053C167.71 15.8287 168.459 16.1904 169.395 16.1904C170.338 16.1904 171.087 15.8254 171.642 15.0953C172.198 14.3587 172.475 13.33 172.475 12.0093C172.475 10.828 172.191 9.87228 171.622 9.14225C171.061 8.40557 170.311 8.03724 169.375 8.03724C168.459 8.03724 167.72 8.39894 167.158 9.12234C166.596 9.84573 166.315 10.8811 166.315 12.2283Z"
          fill="#66AAAA"/>
    <path d="M185.537 17.4945H183.681V8.24629H178.685V17.4945H176.819V6.72318H185.537V17.4945Z" fill="#66AAAA"/>
    <path d="M188.025 12.0093C188.025 10.9541 188.233 10.005 188.647 9.16216C189.069 8.3193 189.651 7.6689 190.393 7.21097C191.142 6.75304 191.995 6.52408 192.951 6.52408C194.429 6.52408 195.623 7.03178 196.533 8.04719C197.449 9.06261 197.907 10.4132 197.907 12.0989V12.2283C197.907 13.2769 197.703 14.2193 197.295 15.0555C196.894 15.8851 196.315 16.5322 195.56 16.9968C194.811 17.4613 193.948 17.6936 192.971 17.6936C191.5 17.6936 190.306 17.1859 189.39 16.1705C188.48 15.1551 188.025 13.8111 188.025 12.1387V12.0093ZM189.891 12.2283C189.891 13.4229 190.169 14.3819 190.724 15.1053C191.286 15.8287 192.035 16.1904 192.971 16.1904C193.914 16.1904 194.663 15.8254 195.219 15.0953C195.774 14.3587 196.051 13.33 196.051 12.0093C196.051 10.828 195.767 9.87228 195.198 9.14225C194.637 8.40557 193.888 8.03724 192.951 8.03724C192.035 8.03724 191.296 8.39894 190.734 9.12234C190.172 9.84573 189.891 10.8811 189.891 12.2283Z"
          fill="#66AAAA"/>
    <path d="M208.973 6.72318V17.4945H207.107V8.24629H203.415L203.194 12.2781C203.074 14.1297 202.76 15.4537 202.251 16.2501C201.75 17.0465 200.95 17.4613 199.853 17.4945H199.111V15.8718L199.643 15.832C200.245 15.7657 200.676 15.4205 200.937 14.7967C201.198 14.1728 201.365 13.0181 201.439 11.3323L201.639 6.72318H208.973Z"
          fill="#66AAAA"/>
    <path d="M213.979 10.4364H216.798C218.029 10.4497 219.002 10.7682 219.718 11.3921C220.433 12.0159 220.791 12.8621 220.791 13.9306C220.791 15.0058 220.423 15.8685 219.688 16.5189C218.952 17.1693 217.962 17.4945 216.718 17.4945H212.123V6.72318H213.979V10.4364ZM213.979 11.9396V15.9913H216.738C217.434 15.9913 217.972 15.8154 218.353 15.4637C218.734 15.1053 218.925 14.6175 218.925 14.0003C218.925 13.403 218.738 12.9152 218.363 12.5369C217.995 12.152 217.477 11.9529 216.808 11.9396H213.979Z"
          fill="#66AAAA"/>
    <path d="M231.977 17.4945H230.121V12.8953H225.135V17.4945H223.269V6.72318H225.135V11.3921H230.121V6.72318H231.977V17.4945Z"
          fill="#66AAAA"/>
    <path d="M234.475 12.0093C234.475 10.9541 234.683 10.005 235.097 9.16216C235.519 8.3193 236.101 7.6689 236.843 7.21097C237.592 6.75304 238.445 6.52408 239.401 6.52408C240.879 6.52408 242.073 7.03178 242.983 8.04719C243.899 9.06261 244.357 10.4132 244.357 12.0989V12.2283C244.357 13.2769 244.153 14.2193 243.745 15.0555C243.344 15.8851 242.765 16.5322 242.01 16.9968C241.261 17.4613 240.398 17.6936 239.421 17.6936C237.95 17.6936 236.756 17.1859 235.84 16.1705C234.93 15.1551 234.475 13.8111 234.475 12.1387V12.0093ZM236.341 12.2283C236.341 13.4229 236.619 14.3819 237.174 15.1053C237.736 15.8287 238.485 16.1904 239.421 16.1904C240.364 16.1904 241.113 15.8254 241.669 15.0953C242.224 14.3587 242.501 13.33 242.501 12.0093C242.501 10.828 242.217 9.87228 241.648 9.14225C241.087 8.40557 240.338 8.03724 239.401 8.03724C238.485 8.03724 237.746 8.39894 237.184 9.12234C236.622 9.84573 236.341 10.8811 236.341 12.2283Z"
          fill="#66AAAA"/>
    <path d="M252.935 15.0555L256.627 6.72318H258.944V17.4945H257.088V9.65991L253.577 17.4945H252.293L248.711 9.49067V17.4945H246.855V6.72318H249.263L252.935 15.0555Z"
          fill="#66AAAA"/>
    <path d="M265.485 14.7967L268.014 6.72318H270L265.636 19.157C264.96 20.9489 263.887 21.8448 262.416 21.8448L262.064 21.815L261.372 21.6856V20.1923L261.874 20.2321C262.502 20.2321 262.991 20.106 263.338 19.8538C263.693 19.6017 263.984 19.1404 264.211 18.4701L264.623 17.375L260.75 6.72318H262.777L265.485 14.7967Z"
          fill="#66AAAA"/>
    <path d="M81.3408 34.4733V40.1477H79.4146V25.6532H84.802C86.4005 25.6532 87.6512 26.058 88.5541 26.8677C89.4637 27.6774 89.9185 28.7492 89.9185 30.0832C89.9185 31.4902 89.4737 32.5753 88.5842 33.3385C87.7013 34.0951 86.4339 34.4733 84.7819 34.4733H81.3408ZM81.3408 32.9104H84.802C85.832 32.9104 86.6212 32.6715 87.1696 32.1936C87.718 31.7092 87.9923 31.0123 87.9923 30.1031C87.9923 29.2403 87.718 28.5501 87.1696 28.0324C86.6212 27.5148 85.8687 27.246 84.9123 27.2261H81.3408V32.9104Z"
          fill="#66AAAA"/>
    <path d="M96.4496 40.3468C94.9782 40.3468 93.781 39.869 92.858 38.9133C91.935 37.951 91.4735 36.6668 91.4735 35.0607V34.7222C91.4735 33.6537 91.6775 32.7013 92.0855 31.8651C92.5002 31.0223 93.0753 30.3652 93.8111 29.894C94.5535 29.4162 95.356 29.1773 96.2188 29.1773C97.6301 29.1773 98.7269 29.6385 99.5095 30.561C100.292 31.4835 100.683 32.8042 100.683 34.5231V35.2897H93.3295C93.3563 36.3515 93.6673 37.211 94.2625 37.868C94.8645 38.5184 95.6269 38.8436 96.5499 38.8436C97.2053 38.8436 97.7605 38.7109 98.2153 38.4454C98.6701 38.1799 99.068 37.8282 99.4091 37.3902L100.543 38.2662C99.6332 39.6533 98.2688 40.3468 96.4496 40.3468ZM96.2188 30.6904C95.4697 30.6904 94.841 30.9625 94.3327 31.5067C93.8244 32.0443 93.5101 32.8009 93.3897 33.7765H98.8273V33.6371C98.7737 32.7013 98.5196 31.978 98.0648 31.4669C97.61 30.9493 96.9947 30.6904 96.2188 30.6904Z"
          fill="#66AAAA"/>
    <path d="M109.853 30.8995H104.847V40.1477H102.981V29.3764H109.853V30.8995Z" fill="#66AAAA"/>
    <path d="M115.02 37.4499L117.548 29.3764H119.534L115.17 41.8102C114.495 43.6021 113.421 44.498 111.95 44.498L111.598 44.4682L110.906 44.3388V42.8455L111.408 42.8853C112.037 42.8853 112.525 42.7592 112.873 42.507C113.227 42.2548 113.518 41.7936 113.745 41.1233L114.157 40.0282L110.284 29.3764H112.311L115.02 37.4499Z"
          fill="#66AAAA"/>
    <path d="M129.677 29.3764V40.1477H127.811V30.8995H124.119L123.898 34.9313C123.778 36.7829 123.463 38.1069 122.955 38.9033C122.454 39.6997 121.654 40.1145 120.557 40.1477H119.815V38.525L120.347 38.4852C120.949 38.4188 121.38 38.0737 121.641 37.4499C121.902 36.826 122.069 35.6713 122.143 33.9855L122.343 29.3764H129.677Z"
          fill="#66AAAA"/>
    <path d="M139.679 29.3764H141.535V40.1477H139.679V32.2932L134.673 40.1477H132.817V29.3764H134.673V37.2408L139.679 29.3764Z"
          fill="#66AAAA"/>
    <path d="M153.684 34.8815C153.684 36.5208 153.307 37.8415 152.551 38.8436C151.795 39.8457 150.772 40.3468 149.481 40.3468C148.163 40.3468 147.127 39.932 146.371 39.1024V44.289H144.515V29.3764H146.21L146.301 30.571C147.056 29.6418 148.106 29.1773 149.451 29.1773C150.755 29.1773 151.785 29.6651 152.541 30.6407C153.303 31.6163 153.684 32.9735 153.684 34.7123V34.8815ZM151.828 34.6724C151.828 33.4579 151.568 32.4989 151.046 31.7954C150.524 31.092 149.809 30.7402 148.899 30.7402C147.775 30.7402 146.933 31.2346 146.371 32.2235V37.3703C146.926 38.3525 147.775 38.8436 148.919 38.8436C149.809 38.8436 150.514 38.4952 151.036 37.7983C151.564 37.0948 151.828 36.0529 151.828 34.6724Z"
          fill="#66AAAA"/>
    <path d="M155.56 34.6625C155.56 33.6073 155.768 32.6582 156.182 31.8154C156.604 30.9725 157.186 30.3221 157.928 29.8642C158.677 29.4062 159.53 29.1773 160.486 29.1773C161.964 29.1773 163.158 29.685 164.068 30.7004C164.984 31.7158 165.442 33.0664 165.442 34.7521V34.8815C165.442 35.9301 165.238 36.8725 164.83 37.7087C164.429 38.5383 163.851 39.1854 163.095 39.65C162.346 40.1145 161.483 40.3468 160.506 40.3468C159.035 40.3468 157.841 39.8391 156.925 38.8237C156.015 37.8083 155.56 36.4643 155.56 34.7919V34.6625ZM157.426 34.8815C157.426 36.0761 157.704 37.0351 158.259 37.7585C158.821 38.4819 159.57 38.8436 160.506 38.8436C161.449 38.8436 162.199 38.4786 162.754 37.7485C163.309 37.0119 163.586 35.9832 163.586 34.6625C163.586 33.4812 163.302 32.5255 162.734 31.7954C162.172 31.0588 161.423 30.6904 160.486 30.6904C159.57 30.6904 158.831 31.0521 158.269 31.7755C157.707 32.4989 157.426 33.5343 157.426 34.8815Z"
          fill="#66AAAA"/>
    <path d="M167.94 40.1477V29.3764H172.174C173.619 29.3764 174.726 29.6286 175.495 30.133C176.271 30.6307 176.659 31.3641 176.659 32.333C176.659 32.8308 176.508 33.2821 176.207 33.6869C175.906 34.0851 175.461 34.3904 174.873 34.6028C175.528 34.7554 176.053 35.054 176.448 35.4987C176.849 35.9434 177.05 36.4743 177.05 37.0915C177.05 38.0804 176.682 38.837 175.946 39.3613C175.217 39.8856 174.184 40.1477 172.846 40.1477H167.94ZM169.796 35.4191V38.6644H172.866C173.642 38.6644 174.221 38.5217 174.602 38.2363C174.99 37.951 175.184 37.5494 175.184 37.0318C175.184 35.9566 174.388 35.4191 172.796 35.4191H169.796ZM169.796 33.9457H172.194C173.933 33.9457 174.803 33.4413 174.803 32.4326C174.803 31.4238 173.98 30.9028 172.335 30.8696H169.796V33.9457Z"
          fill="#66AAAA"/>
    <path d="M186.209 40.1477C186.102 39.9353 186.015 39.557 185.949 39.0128C185.086 39.9021 184.056 40.3468 182.859 40.3468C181.788 40.3468 180.909 40.0482 180.22 39.4509C179.538 38.8469 179.197 38.0837 179.197 37.1612C179.197 36.0396 179.625 35.1702 180.481 34.553C181.344 33.9291 182.554 33.6172 184.113 33.6172H185.918V32.771C185.918 32.1273 185.725 31.6163 185.337 31.238C184.949 30.853 184.377 30.6606 183.621 30.6606C182.959 30.6606 182.404 30.8265 181.956 31.1583C181.508 31.4902 181.284 31.8917 181.284 32.3629H179.417C179.417 31.8253 179.608 31.3076 179.989 30.8099C180.377 30.3055 180.899 29.9073 181.554 29.6153C182.217 29.3233 182.942 29.1773 183.731 29.1773C184.982 29.1773 185.962 29.4892 186.671 30.113C187.38 30.7303 187.748 31.5831 187.774 32.6715V37.6291C187.774 38.6179 187.902 39.4044 188.156 39.9884V40.1477H186.209ZM183.129 38.744C183.711 38.744 184.263 38.5947 184.785 38.2961C185.307 37.9974 185.684 37.6092 185.918 37.1313V34.9213H184.464C182.19 34.9213 181.053 35.5817 181.053 36.9024C181.053 37.4798 181.247 37.9311 181.635 38.2562C182.023 38.5814 182.521 38.744 183.129 38.744Z"
          fill="#66AAAA"/>
    <path d="M199.553 40.1477H197.697V35.5485H192.71V40.1477H190.844V29.3764H192.71V34.0453H197.697V29.3764H199.553V40.1477Z"
          fill="#66AAAA"/>
    <path d="M209.565 29.3764H211.421V40.1477H209.565V32.2932L204.559 40.1477H202.703V29.3764H204.559V37.2408L209.565 29.3764Z"
          fill="#66AAAA"/>
    <path d="M216.427 33.9457H219.035C219.176 32.5122 219.688 31.3607 220.57 30.4913C221.46 29.6153 222.58 29.1773 223.931 29.1773C225.349 29.1773 226.51 29.6518 227.412 30.6008C228.315 31.5499 228.804 32.7843 228.877 34.3041L228.887 34.8815C228.887 35.9301 228.68 36.8758 228.265 37.7187C227.851 38.5615 227.269 39.2119 226.52 39.6699C225.771 40.1212 224.914 40.3468 223.951 40.3468C222.553 40.3468 221.41 39.8955 220.52 38.9929C219.631 38.0837 219.132 36.9057 219.025 35.4589H216.427V40.1477H214.571V29.3764H216.427V33.9457ZM220.861 34.8815C220.861 36.0761 221.139 37.0351 221.694 37.7585C222.256 38.4819 223.008 38.8436 223.951 38.8436C224.894 38.8436 225.64 38.4753 226.189 37.7386C226.744 37.0019 227.021 35.9765 227.021 34.6625C227.021 33.4878 226.74 32.5321 226.178 31.7954C225.617 31.0588 224.868 30.6904 223.931 30.6904C223.008 30.6904 222.266 31.0521 221.704 31.7755C221.142 32.4989 220.861 33.5343 220.861 34.8815Z"
          fill="#66AAAA"/>
    <path d="M79.0233 62.8009V52.0296H83.5579C85.0361 52.0296 86.1697 52.2884 86.9589 52.8061C87.7481 53.3237 88.1428 54.067 88.1428 55.036C88.1428 55.5337 87.9755 55.9817 87.6411 56.3799C87.3134 56.7715 86.8319 57.0734 86.1965 57.2858C86.9723 57.4318 87.5809 57.7205 88.0224 58.1519C88.4705 58.5767 88.6945 59.1009 88.6945 59.7248C88.6945 60.7269 88.3133 61.4902 87.5508 62.0145C86.7951 62.5387 85.6948 62.8009 84.2502 62.8009H79.0233ZM81.9227 58.3311V60.5013H84.2602C85.2835 60.5013 85.7952 60.1462 85.7952 59.4361C85.7952 58.7127 85.3069 58.3444 84.3304 58.3311H81.9227ZM81.9227 56.3998H83.7185C84.7351 56.3865 85.2434 56.0613 85.2434 55.4242C85.2434 55.0327 85.1029 54.7539 84.822 54.588C84.5478 54.4221 84.1265 54.3391 83.5579 54.3391H81.9227V56.3998Z"
          fill="#66AAAA"/>
    <path d="M98.7871 57.694V62.8009H95.7774V48.3064H101.476C102.573 48.3064 103.536 48.5055 104.365 48.9037C105.201 49.3019 105.843 49.8693 106.291 50.606C106.739 51.336 106.964 52.1689 106.964 53.1047C106.964 54.525 106.472 55.6466 105.489 56.4695C104.512 57.2858 103.158 57.694 101.426 57.694H98.7871ZM98.7871 55.2749H101.476C102.272 55.2749 102.877 55.0891 103.292 54.7174C103.713 54.3458 103.924 53.8148 103.924 53.1246C103.924 52.4145 103.713 51.8404 103.292 51.4024C102.87 50.9644 102.288 50.7387 101.546 50.7255H98.7871V55.2749Z"
          fill="#66AAAA"/>
    <path d="M108.258 57.3157C108.258 56.2472 108.465 55.2948 108.88 54.4586C109.294 53.6224 109.89 52.9753 110.665 52.5174C111.448 52.0594 112.354 51.8305 113.384 51.8305C114.849 51.8305 116.043 52.2751 116.966 53.1644C117.895 54.0538 118.414 55.2616 118.521 56.7881L118.541 57.5247C118.541 59.1773 118.076 60.5046 117.146 61.5067C116.217 62.5022 114.969 63 113.404 63C111.839 63 110.589 62.5022 109.652 61.5067C108.723 60.5112 108.258 59.1574 108.258 57.4451V57.3157ZM111.157 57.5247C111.157 58.5468 111.351 59.3299 111.739 59.8741C112.127 60.4117 112.682 60.6805 113.404 60.6805C114.107 60.6805 114.655 60.415 115.05 59.8841C115.444 59.3465 115.642 58.4904 115.642 57.3157C115.642 56.3135 115.444 55.5371 115.05 54.9862C114.655 54.4354 114.1 54.1599 113.384 54.1599C112.675 54.1599 112.127 54.4354 111.739 54.9862C111.351 55.5304 111.157 56.3766 111.157 57.5247Z"
          fill="#66AAAA"/>
    <path d="M124.841 60.6805C125.376 60.6805 125.811 60.5345 126.145 60.2425C126.48 59.9504 126.654 59.5622 126.667 59.0777H129.386C129.379 59.8078 129.179 60.4781 128.784 61.0886C128.389 61.6926 127.848 62.1638 127.159 62.5022C126.477 62.8341 125.721 63 124.891 63C123.34 63 122.116 62.5122 121.22 61.5366C120.323 60.5544 119.875 59.2005 119.875 57.475V57.2858C119.875 55.6266 120.32 54.3026 121.21 53.3138C122.099 52.3249 123.32 51.8305 124.871 51.8305C126.229 51.8305 127.316 52.2154 128.132 52.9852C128.955 53.7485 129.373 54.7672 129.386 56.0414H126.667C126.654 55.484 126.48 55.0327 126.145 54.6876C125.811 54.3358 125.37 54.1599 124.821 54.1599C124.146 54.1599 123.634 54.4055 123.286 54.8966C122.945 55.3811 122.775 56.1709 122.775 57.2659V57.5646C122.775 58.6729 122.945 59.4693 123.286 59.9538C123.627 60.4382 124.146 60.6805 124.841 60.6805Z"
          fill="#66AAAA"/>
    <path d="M135.556 60.6805C136.091 60.6805 136.526 60.5345 136.86 60.2425C137.194 59.9504 137.368 59.5622 137.382 59.0777H140.101C140.094 59.8078 139.893 60.4781 139.499 61.0886C139.104 61.6926 138.562 62.1638 137.873 62.5022C137.191 62.8341 136.435 63 135.606 63C134.054 63 132.83 62.5122 131.934 61.5366C131.038 60.5544 130.59 59.2005 130.59 57.475V57.2858C130.59 55.6266 131.035 54.3026 131.924 53.3138C132.814 52.3249 134.034 51.8305 135.586 51.8305C136.944 51.8305 138.031 52.2154 138.846 52.9852C139.669 53.7485 140.087 54.7672 140.101 56.0414H137.382C137.368 55.484 137.194 55.0327 136.86 54.6876C136.526 54.3358 136.084 54.1599 135.536 54.1599C134.86 54.1599 134.349 54.4055 134.001 54.8966C133.66 55.3811 133.489 56.1709 133.489 57.2659V57.5646C133.489 58.6729 133.66 59.4693 134.001 59.9538C134.342 60.4382 134.86 60.6805 135.556 60.6805Z"
          fill="#66AAAA"/>
    <path d="M148.297 52.0296H151.196V62.8009H148.297V56.1509L144.665 62.8009H141.756V52.0296H144.665V58.6696L148.297 52.0296Z"
          fill="#66AAAA"/>
    <path d="M159.955 52.0296H162.854V62.8009H159.955V56.1509L156.323 62.8009H153.414V52.0296H156.323V58.6696L159.955 52.0296Z"
          fill="#66AAAA"/>
    <defs>
        <radialGradient id="paint0_radial" cx="0" cy="0" r="1" gradientUnits="userSpaceOnUse"
                        gradientTransform="translate(20.202 -17.4794) rotate(45.9078) scale(68.9548 1091)">
            <stop stop-color="#FFE259"/>
            <stop offset="1" stop-color="#FFA751"/>
        </radialGradient>
        <radialGradient id="paint1_radial" cx="0" cy="0" r="1" gradientUnits="userSpaceOnUse"
                        gradientTransform="translate(20.202 -17.4794) rotate(45.9078) scale(68.9548 1091)">
            <stop stop-color="#FFE259"/>
            <stop offset="1" stop-color="#FFA751"/>
        </radialGradient>
    </defs>
</svg>
