<svg width="11" height="11" viewBox="0 0 11 11" fill="none" xmlns="http://www.w3.org/2000/svg">
    <path opacity="0.8"
          d="M9.375 10.75H1.125C0.8125 10.75 0.546875 10.6406 0.328125 10.4219C0.109375 10.2031 0 9.9375 0 9.625V1.375C0 1.0625 0.109375 0.796875 0.328125 0.578125C0.546875 0.359375 0.8125 0.25 1.125 0.25H9.375C9.6875 0.25 9.95312 0.359375 10.1719 0.578125C10.3906 0.796875 10.5 1.0625 10.5 1.375V9.625C10.5 9.9375 10.3906 10.2031 10.1719 10.4219C9.95312 10.6406 9.6875 10.75 9.375 10.75ZM4.57031 8.45312L8.88281 4.14062C8.96094 4.0625 9 3.97656 9 3.88281C9 3.77344 8.96094 3.67969 8.88281 3.60156L8.36719 3.08594C8.28906 3.00781 8.19531 2.96875 8.08594 2.96875C7.99219 2.96875 7.90625 3.00781 7.82812 3.08594L4.3125 6.60156L2.67188 4.96094C2.59375 4.88281 2.5 4.84375 2.39062 4.84375C2.29688 4.84375 2.21094 4.88281 2.13281 4.96094L1.61719 5.47656C1.53906 5.55469 1.5 5.64844 1.5 5.75781C1.5 5.85156 1.53906 5.9375 1.61719 6.01562L4.05469 8.45312C4.11719 8.53125 4.20312 8.57031 4.3125 8.57031C4.42188 8.57031 4.50781 8.53125 4.57031 8.45312Z"
          fill="#CECAB3"/>
</svg>
