<svg width="20" height="20" viewBox="0 0 20 20" fill="none" xmlns="http://www.w3.org/2000/svg">
    <path d="M9.00041 0C7.67595 0 4.63228 3.80724e-05 1.60038 3.48721e-05C1.04034 3.42809e-05 0.760319 3.39853e-05 0.54641 0.109025C0.358249 0.204896 0.205269 0.357871 0.109394 0.54603C0.000398816 0.759938 0.000392927 1.03996 0.000381149 1.60001L0.000215003 9.50003C0.000215003 10.7833 4.2799e-05 15.4672 6.61936e-06 18.4018C-2.70876e-07 18.9607 -3.71599e-06 19.2401 0.108989 19.454C0.204859 19.6422 0.357846 19.7952 0.546005 19.891C0.759919 20 1.03994 20 1.59998 20H18.3998C18.9598 20 19.2398 20 19.4537 19.891C19.6419 19.7952 19.7949 19.6422 19.8908 19.454C19.9998 19.2401 19.9998 18.9601 19.9998 18.4001C19.9999 14.6308 20.0004 10.3614 20.0004 9.00003V1.60003C20.0004 1.03998 20.0004 0.759948 19.8914 0.546036C19.7955 0.357874 19.6426 0.204894 19.4544 0.10902C19.2405 2.68262e-05 18.9609 2.67709e-05 18.4017 2.66604e-05C16.0356 2.61927e-05 12.2066 2.22325e-05 11.0004 2.22325e-05L9.00041 0ZM10.4485 2.04378C12.7182 2.04378 14.5635 3.88986 14.5635 6.1594C14.5635 8.42875 12.7182 10.2738 10.4485 10.2738C8.17881 10.2738 6.33229 8.42875 6.33229 6.1594C6.33229 3.88986 8.17879 2.04378 10.4485 2.04378ZM10.4048 4.45504C9.48543 4.47844 8.74417 5.23472 8.74417 6.15942C8.74417 7.0984 9.50897 7.86253 10.4485 7.86253C11.3879 7.86253 12.1517 7.0984 12.1517 6.15942C12.1517 5.22006 11.3879 4.45504 10.4485 4.45504C10.4339 4.45504 10.4194 4.45466 10.4048 4.45504ZM7.04103 10.4138C7.25903 10.4145 7.47897 10.4745 7.67729 10.5994C9.36185 11.6587 11.5334 11.6594 13.2185 10.5994C13.7827 10.2441 14.5264 10.4147 14.8817 10.9788C15.2366 11.542 15.0661 12.2866 14.5023 12.6413C13.7151 13.1361 13.3215 13.3834 13.2066 13.5447C12.9666 13.8817 12.939 14.1272 13.098 14.5092C13.1741 14.6919 13.4328 14.9506 13.9502 15.468L14.4142 15.9319C14.8853 16.402 14.8853 17.1661 14.4142 17.6369C13.9428 18.1079 13.1803 18.1079 12.7098 17.6369L11.579 16.5067C11.1828 16.1108 10.9848 15.9129 10.7564 15.8387C10.5556 15.7735 10.3392 15.7736 10.1384 15.8389C9.91009 15.9132 9.71213 16.1112 9.31622 16.5074L8.18729 17.6369C7.95195 17.8724 7.64315 17.99 7.33479 17.99C7.02611 17.99 6.71835 17.872 6.48229 17.6369C6.01127 17.1658 6.01141 16.403 6.48229 15.9319L6.94509 15.4689C7.46333 14.9504 7.72245 14.6911 7.79851 14.5078C7.95677 14.1263 7.929 13.881 7.68951 13.5446C7.57441 13.3829 7.18037 13.1357 6.39229 12.6413C5.82961 12.2866 5.66041 11.5428 6.01541 10.9788C6.23665 10.6262 6.61041 10.4271 6.99729 10.4144C7.01187 10.4139 7.02644 10.4137 7.04103 10.4138Z"
          fill="#CECAB3"/>
</svg>
