<svg width="30" height="30" viewBox="0 0 30 30" fill="none" xmlns="http://www.w3.org/2000/svg">
    <circle cx="15" cy="15" r="15" fill="white"/>
    <path d="M9.55556 22H20.4444C20.857 22 21.2527 21.8361 21.5444 21.5444C21.8361 21.2527 22 20.857 22 20.4444V11.8889L18.1111 8H9.55556C9.143 8 8.74733 8.16389 8.45561 8.45561C8.16389 8.74733 8 9.143 8 9.55556V20.4444C8 20.857 8.16389 21.2527 8.45561 21.5444C8.74733 21.8361 9.143 22 9.55556 22ZM11.1111 9.55556H14.2222V11.1111H15.7778V9.55556H17.3333V12.6667H11.1111V9.55556ZM11.1111 15.7778H18.8889V20.4444H11.1111V15.7778Z"
          fill="#007271"/>
</svg>
