<svg width="20" height="20" viewBox="0 0 20 20" fill="none" xmlns="http://www.w3.org/2000/svg">
    <g opacity="0.4">
        <path d="M9.9998 0L0 8.4881H20L9.9998 0Z" fill="white"/>
        <path d="M18.2883 11.0472C18.6155 11.0472 18.8803 10.7615 18.8803 10.4076C18.8803 10.0554 18.6155 9.76807 18.2883 9.76807H14.1437C13.8169 9.76807 13.5516 10.0546 13.5516 10.4076C13.5516 10.7606 13.8169 11.0472 14.1437 11.0472H14.1441V16.181H11.7759V11.0472H12.368C12.6952 11.0472 12.96 10.7615 12.96 10.4076C12.96 10.0554 12.6952 9.76807 12.368 9.76807H7.63052C7.30372 9.76807 7.03849 10.0546 7.03849 10.4076C7.03849 10.7606 7.30372 11.0472 7.63052 11.0472H8.22374V16.181H5.85443V11.0472H5.85522C6.18242 11.0472 6.44725 10.7615 6.44725 10.4076C6.44725 10.0554 6.18242 9.76807 5.85522 9.76807H1.71021C1.38341 9.76807 1.11818 10.0546 1.11818 10.4076C1.11818 10.7606 1.38341 11.0472 1.71021 11.0472H2.30224V16.181H1.71139C1.38459 16.181 1.11936 16.4676 1.11936 16.8206C1.11936 17.1736 1.38459 17.4601 1.71139 17.4601H18.2883C18.6155 17.4601 18.8803 17.1736 18.8803 16.8206C18.8803 16.4676 18.6155 16.181 18.2883 16.181H17.6962V11.0472H18.2883Z"
              fill="white"/>
        <path d="M18.8803 18.7207H1.11898C0.792177 18.7207 0.526947 19.0072 0.526947 19.3603C0.526947 19.7133 0.792177 19.9998 1.11898 19.9998H18.8803C19.2075 19.9998 19.4723 19.7133 19.4723 19.3603C19.4723 19.0072 19.2075 18.7207 18.8803 18.7207Z"
              fill="white"/>
    </g>
</svg>
