<svg width="15" height="21" viewBox="0 0 15 21" fill="none" xmlns="http://www.w3.org/2000/svg">
    <path d="M10.0343 1.13867V5.13867H14.048L10.0343 1.13867Z" fill="#66AAAA"/>
    <path d="M8.6964 6.47217V0.472168H0V20.4722H14.717V6.47217H8.6964ZM11.3722 18.4722H2.00686V8.47217C2.00686 8.10417 2.30655 7.8055 2.67581 7.8055C3.04508 7.8055 3.34477 8.10417 3.34477 8.47217V13.5295L5.97643 10.9073L7.96858 12.5375L10.8776 9.35706C11.1269 9.0855 11.5497 9.0655 11.8226 9.3135C12.0956 9.56106 12.1148 9.98283 11.8663 10.2553L8.10147 14.3708L6.06518 12.7046L3.34477 15.4148V17.1388H11.3722C11.7415 17.1388 12.0412 17.4375 12.0412 17.8055C12.0412 18.1744 11.7415 18.4722 11.3722 18.4722Z"
          fill="#66AAAA"/>
</svg>
