<svg width="16" height="20" viewBox="0 0 16 20" fill="none" xmlns="http://www.w3.org/2000/svg">
    <path d="M12 3C12 2 11.3022 1.33333 10.3333 1.33333H9.63289C9.47867 0.572889 8.80578 0 8 0C7.19422 0 6.52089 0.572889 6.36711 1.33333H5.66667C4.66667 1.33333 4 2 4 3V4H12V3Z"
          fill="#66AAAA"/>
    <path d="M15.3333 2H13.172C13.2747 2.31067 13.3333 2.64578 13.3333 3V4H14V5.33333V16.6667V18H12.6667H3.33333H2V16.6667V5.33333V4H2.66667V3C2.66667 2.644 2.72222 2.30978 2.82178 2H0.666667C0.297778 2 0 2.29867 0 2.66667V19.3333C0 19.7022 0.297778 20 0.666667 20H15.3333C15.7018 20 16 19.7022 16 19.3333V2.66667C16 2.29867 15.7018 2 15.3333 2Z"
          fill="#66AAAA"/>
    <path d="M3.33333 5.33301V16.6663H12.6667V5.33301H3.33333ZM10.6702 14.6663H5.33689C4.96889 14.6663 4.67022 14.3686 4.67022 13.9997C4.67022 13.6317 4.96889 13.333 5.33689 13.333H10.6702C11.0382 13.333 11.3369 13.6317 11.3369 13.9997C11.3369 14.3686 11.0382 14.6663 10.6702 14.6663ZM10.6702 11.333H5.33689C4.96889 11.333 4.67022 11.0352 4.67022 10.6663C4.67022 10.2983 4.96889 9.99967 5.33689 9.99967H10.6702C11.0382 9.99967 11.3369 10.2983 11.3369 10.6663C11.3369 11.0352 11.0382 11.333 10.6702 11.333ZM10.6702 7.99967H5.33689C4.96889 7.99967 4.67022 7.7019 4.67022 7.33301C4.67022 6.96501 4.96889 6.66634 5.33689 6.66634H10.6702C11.0382 6.66634 11.3369 6.96501 11.3369 7.33301C11.3369 7.7019 11.0382 7.99967 10.6702 7.99967Z"
          fill="#66AAAA"/>
</svg>
