<svg width="20" height="20" viewBox="0 0 20 20" fill="none" xmlns="http://www.w3.org/2000/svg">
    <rect width="20" height="20" rx="1" fill="#CECAB3"/>
    <path d="M15.359 6.7989C15.9874 6.41314 16.4035 5.88662 16.6072 5.21699C16.0333 5.52739 15.4174 5.75294 14.7788 5.88662C14.232 5.29865 13.5399 5 12.71 5C11.8988 5 11.2137 5.28465 10.6545 5.8384C10.3844 6.10135 10.1709 6.41668 10.027 6.76505C9.88311 7.11343 9.81186 7.48752 9.81762 7.8644C9.81762 8.10472 9.84795 8.31937 9.90862 8.50136C7.5163 8.4197 5.53619 7.42731 3.97606 5.51719C3.71163 5.98461 3.57941 6.46059 3.57941 6.95289C3.57941 7.96472 4.00639 8.76657 4.85879 9.35531C4.3727 9.31409 3.94417 9.19121 3.57941 8.98978C3.57941 9.71229 3.79173 10.3158 4.21715 10.847C4.63041 11.3646 5.21279 11.7201 5.86206 11.8511C5.61941 11.9133 5.36354 11.9428 5.10066 11.9428C4.85801 11.9428 4.68613 11.9226 4.58425 11.8783C4.76312 12.467 5.10066 12.9446 5.5883 13.3101C6.07037 13.6761 6.65677 13.8786 7.26199 13.888C6.22604 14.7007 5.04155 15.1028 3.70152 15.1028C3.37331 15.1028 3.14077 15.0981 3 15.0732C4.31982 15.9303 5.78896 16.3557 7.41442 16.3557C9.078 16.3557 10.5479 15.9342 11.8273 15.0911C13.1067 14.2527 14.0508 13.2183 14.6575 12.0004C15.2574 10.8219 15.5697 9.51811 15.569 8.19571V7.83173C16.1281 7.41947 16.6122 6.91409 17 6.3377C16.4763 6.56469 15.9243 6.71983 15.359 6.7989Z"
          fill="#F2F2EB"/>
</svg>
