<svg style="color: green" width="20" height="20" viewBox="0 0 20 20" fill="none" xmlns="http://www.w3.org/2000/svg">
    <rect width="20" height="20" rx="1" fill="#CECAB3"/>
    <path d="M4 7.10277C4 6.6996 4.22925 6.48221 4.68775 6.45059L6.45455 6.46245C6.57312 6.46245 6.65217 6.52174 6.6917 6.64032C6.87352 7.2332 7.07708 7.74506 7.30237 8.17589C7.52767 8.60672 7.82213 9.10277 8.18577 9.66403C8.21739 9.73518 8.26877 9.77075 8.33992 9.77075C8.39526 9.77075 8.43874 9.74308 8.47036 9.68775L8.50593 9.55731L8.51779 7.50593C8.51779 7.36364 8.48419 7.26877 8.417 7.22134C8.3498 7.17391 8.2253 7.13834 8.04348 7.11462C7.90119 7.09091 7.83004 7.00395 7.83004 6.85375C7.83004 6.82213 7.83399 6.79842 7.8419 6.78261C8.00791 6.26877 8.48221 6.01186 9.26482 6.01186L9.92885 6C10.2292 6 10.4783 6.0751 10.6759 6.2253C10.8735 6.37549 10.9723 6.61265 10.9723 6.93676V9.62846C11.0277 9.66798 11.0791 9.68775 11.1265 9.68775C11.2451 9.68775 11.3478 9.6166 11.4348 9.47431C12.3043 8.25692 12.7747 7.44269 12.8458 7.03162C12.8458 7.02372 12.8538 7.00395 12.8696 6.97233C12.9249 6.85375 13.0158 6.75099 13.1423 6.66403C13.2688 6.57708 13.3794 6.51779 13.4743 6.48617C13.5059 6.47036 13.5415 6.46245 13.581 6.46245H15.419L15.5375 6.47431C15.6957 6.47431 15.8182 6.54941 15.9051 6.6996C15.9368 6.74704 15.9585 6.79842 15.9704 6.85375C15.9822 6.90909 15.9901 6.96443 15.9941 7.01976C15.998 7.0751 16 7.10672 16 7.11462V7.19763C15.9447 7.52174 15.8043 7.86759 15.5791 8.23518C15.3538 8.60277 15.0672 9 14.7194 9.42688C14.3715 9.85375 14.1542 10.1344 14.0672 10.2688C13.996 10.3636 13.9605 10.4506 13.9605 10.5296C13.9605 10.5929 13.9921 10.664 14.0553 10.7431L15.7866 12.9249C15.8814 13.0514 15.9289 13.1897 15.9289 13.3399C15.9289 13.5217 15.8577 13.6719 15.7154 13.7905C15.5731 13.9091 15.4032 13.9763 15.2055 13.9921L15.004 14.004H13.2016C13.1937 14.004 13.1779 14.0059 13.1542 14.0099C13.1304 14.0138 13.1146 14.0158 13.1067 14.0158C12.9328 14.0158 12.7708 13.9407 12.6206 13.7905C12.5652 13.7273 12.1937 13.2609 11.5059 12.3913C11.4664 12.336 11.4111 12.2846 11.3399 12.2372C11.3083 12.3636 11.2668 12.5455 11.2154 12.7826C11.164 13.0198 11.1265 13.1897 11.1028 13.2925L11.0672 13.4941C10.9881 13.7708 10.8221 13.9368 10.5692 13.9921L10.4032 14.004H9.24111C8.58498 14.004 7.93083 13.7036 7.27866 13.1028C6.62648 12.502 6.03953 11.7253 5.51779 10.7727C4.99605 9.82016 4.50988 8.71146 4.05929 7.44664C4.01976 7.34387 4 7.22925 4 7.10277Z"
          fill="#F2F2EB"/>
</svg>
