<svg width="69" height="65" viewBox="0 0 69 65" fill="none" xmlns="http://www.w3.org/2000/svg">
    <path d="M43.7662 62.6169H41.568V56.3287H40.0232C39.9383 57.2451 39.8239 58.1782 39.6799 59.1277C39.5397 60.0773 39.405 60.7435 39.2758 61.1263C39.1466 61.509 38.9823 61.8145 38.783 62.0427C38.5873 62.2672 38.3437 62.4384 38.0521 62.5561C37.7605 62.6702 37.408 62.7273 36.9946 62.7273C36.6808 62.7273 36.3947 62.6868 36.1364 62.6058V60.922C36.3578 60.9956 36.5387 61.0324 36.679 61.0324C36.8709 61.0324 37.0167 60.9533 37.1164 60.795C37.2197 60.6331 37.3139 60.3607 37.3988 59.9779C37.4837 59.5915 37.6018 58.8775 37.7531 57.8359C37.9045 56.7906 38.0447 55.6938 38.1739 54.5455H43.7662V62.6169Z"
          fill="#525E54"/>
    <path d="M53.7292 62.6169H48.9232V54.5455H53.7292V56.2956H51.1103V57.5653H53.5354V59.3154H51.1103V60.8392H53.7292V62.6169Z"
          fill="#525E54"/>
    <path d="M62.1198 62.6169H59.9327V56.3287H57.956V54.5455H64.0909V56.3287H62.1198V62.6169Z" fill="#525E54"/>
    <path d="M31.9605 14.8677C31.9605 18.7877 30.9869 22.0916 29.0398 24.7796C27.1205 27.4675 24.478 29.3015 21.1123 30.2815V30.6175C24.9509 31.2335 27.9133 32.7734 29.9995 35.2374C32.1135 37.7014 33.1705 41.0053 33.1705 45.1492C33.1705 50.8891 31.3903 55.4811 27.8298 58.925C24.2972 62.3689 19.5546 64.0909 13.602 64.0909C8.26133 64.0909 3.72733 63.1109 0 61.151V50.9031C1.83585 52.0511 3.82469 52.9331 5.96651 53.5491C8.10834 54.1931 10.1667 54.5151 12.1416 54.5151C18.6506 54.5151 21.905 51.2811 21.905 44.8132C21.905 41.6773 20.9315 39.3253 18.9844 37.7574C17.0651 36.1614 14.2974 35.3634 10.6813 35.3634H7.21823V26.8375H10.5144C13.7967 26.8375 16.3279 26.0396 18.1082 24.4436C19.8884 22.8476 20.7785 20.4677 20.7785 17.3037C20.7785 14.8677 20.2083 12.9918 19.0678 11.6758C17.9552 10.3598 16.3697 9.70184 14.3113 9.70184C11.029 9.70184 7.96926 11.0598 5.13204 13.7758L0 6.1739C4.08894 2.05797 9.27661 0 15.563 0C20.6811 0 24.6866 1.32998 27.5795 3.98993C30.5002 6.62189 31.9605 10.2478 31.9605 14.8677Z"
          fill="url(#paint0_radial)"/>
    <path d="M68.1818 24.6956C68.1818 33.3754 66.8467 39.6613 64.1763 43.5533C61.506 47.4172 57.2641 49.3492 51.4505 49.3492C45.637 49.3492 41.4229 47.4032 38.8082 43.5113C36.1935 39.5913 34.8862 33.3194 34.8862 24.6956C34.8862 16.1557 36.2352 9.91183 38.9334 5.9639C41.6593 1.98797 45.8595 0 51.534 0C57.3753 0 61.6034 1.93197 64.2181 5.7959C66.8606 9.65984 68.1818 15.9597 68.1818 24.6956ZM46.2351 24.6956C46.2351 30.4635 46.6106 34.3974 47.3616 36.4974C48.1126 38.5973 49.5034 39.6473 51.534 39.6473C53.5646 39.6473 54.9693 38.6393 55.7481 36.6234C56.527 34.5794 56.9164 30.6035 56.9164 24.6956C56.9164 18.9557 56.513 15.0217 55.7064 12.8938C54.9275 10.7658 53.5367 9.70184 51.534 9.70184C49.5034 9.70184 48.1126 10.7658 47.3616 12.8938C46.6106 14.9937 46.2351 18.9277 46.2351 24.6956Z"
          fill="url(#paint1_radial)"/>
    <defs>
        <radialGradient id="paint0_radial" cx="0" cy="0" r="1" gradientUnits="userSpaceOnUse"
                        gradientTransform="translate(20.202 -17.4794) rotate(45.9078) scale(68.9548 1091)">
            <stop stop-color="#FFE259"/>
            <stop offset="1" stop-color="#FFA751"/>
        </radialGradient>
        <radialGradient id="paint1_radial" cx="0" cy="0" r="1" gradientUnits="userSpaceOnUse"
                        gradientTransform="translate(20.202 -17.4794) rotate(45.9078) scale(68.9548 1091)">
            <stop stop-color="#FFE259"/>
            <stop offset="1" stop-color="#FFA751"/>
        </radialGradient>
    </defs>
</svg>
