<svg width="39" height="53" viewBox="0 0 39 53" fill="none" xmlns="http://www.w3.org/2000/svg">
    <g opacity="0.5">
        <path d="M26.5909 1.7666V12.3666H37.2272L26.5909 1.7666Z" fill="#005F5E"/>
        <path d="M23.0455 15.9V0H0V53H39V15.9H23.0455ZM30.1364 47.7H5.31818V21.2C5.31818 20.2248 6.11236 19.4333 7.09091 19.4333C8.06945 19.4333 8.86364 20.2248 8.86364 21.2V34.6019L15.8375 27.653L21.1167 31.9731L28.8257 23.545C29.4864 22.8253 30.6067 22.7723 31.33 23.4295C32.0533 24.0856 32.1041 25.2033 31.4458 25.9252L21.4689 36.8315L16.0727 32.416L8.86364 39.5981V44.1667H30.1364C31.1149 44.1667 31.9091 44.9581 31.9091 45.9333C31.9091 46.9109 31.1149 47.7 30.1364 47.7Z"
              fill="#005F5E"/>
    </g>
</svg>
