<svg width="18" height="19" viewBox="0 0 18 19" fill="none" xmlns="http://www.w3.org/2000/svg">
    <path d="M12.1875 12H17.5V1.6875C17.5 1.42708 17.4089 1.20573 17.2266 1.02344C17.0443 0.841146 16.8229 0.75 16.5625 0.75H0.9375C0.677083 0.75 0.455729 0.841146 0.273438 1.02344C0.0911458 1.20573 0 1.42708 0 1.6875V17.3125C0 17.5729 0.0911458 17.7943 0.273438 17.9766C0.455729 18.1589 0.677083 18.25 0.9375 18.25H11.25V12.9375C11.25 12.6771 11.3411 12.4557 11.5234 12.2734C11.7057 12.0911 11.9271 12 12.1875 12ZM17.2266 14.1484L13.3984 17.9766C13.2161 18.1589 12.9948 18.25 12.7344 18.25H12.5V13.25H17.5V13.4844C17.5 13.7448 17.4089 13.9661 17.2266 14.1484Z"
          fill="#F2F2EB"/>
</svg>
