<svg width="60" height="60" viewBox="0 0 60 60" fill="none" xmlns="http://www.w3.org/2000/svg">
    <g opacity="0.5">
        <g clip-path="url(#clip0)">
            <path d="M30.2317 0.608887L0.597336 25.7595H59.8672L30.2317 0.608887Z" fill="#005F5E"/>
            <path d="M54.794 33.3423C55.7636 33.3423 56.5484 32.4958 56.5484 31.4473C56.5484 30.4037 55.7636 29.5522 54.794 29.5522H42.5114C41.5429 29.5522 40.7569 30.4012 40.7569 31.4473C40.7569 32.4933 41.5429 33.3423 42.5114 33.3423H42.5126V48.5542H35.4947V33.3423H37.2491C38.2188 33.3423 39.0036 32.4958 39.0036 31.4473C39.0036 30.4037 38.2188 29.5522 37.2491 29.5522H23.2098C22.2413 29.5522 21.4553 30.4012 21.4553 31.4473C21.4553 32.4933 22.2413 33.3423 23.2098 33.3423H24.9678V48.5542H17.9463V33.3423H17.9487C18.9183 33.3423 19.7031 32.4958 19.7031 31.4473C19.7031 30.4037 18.9183 29.5522 17.9487 29.5522H5.66494C4.69647 29.5522 3.91046 30.4012 3.91046 31.4473C3.91046 32.4933 4.69647 33.3423 5.66494 33.3423H7.41943V48.5542H5.66845C4.69998 48.5542 3.91397 49.4031 3.91397 50.4492C3.91397 51.4952 4.69998 52.3442 5.66845 52.3442H54.794C55.7636 52.3442 56.5484 51.4952 56.5484 50.4492C56.5484 49.4031 55.7636 48.5542 54.794 48.5542H53.0395V33.3423H54.794Z"
                  fill="#005F5E"/>
            <path d="M56.5487 56.0796H3.91307C2.9446 56.0796 2.15859 56.9286 2.15859 57.9746C2.15859 59.0206 2.9446 59.8696 3.91307 59.8696H56.5487C57.5183 59.8696 58.3032 59.0206 58.3032 57.9746C58.3032 56.9286 57.5183 56.0796 56.5487 56.0796Z"
                  fill="#005F5E"/>
        </g>
    </g>
    <defs>
        <clipPath id="clip0">
            <rect x="0.597336" y="0.608887" width="59.2699" height="59.2609" fill="white"/>
        </clipPath>
    </defs>
</svg>
