<svg width="20" height="20" viewBox="0 0 20 20" fill="none" xmlns="http://www.w3.org/2000/svg">
    <rect width="20" height="20" rx="1" fill="#CECAB3"/>
    <path d="M10.3689 8.60283C9.45079 8.60283 8.70155 9.35207 8.70155 10.2702C8.70155 11.1883 9.45079 11.9375 10.3689 11.9375C11.287 11.9375 12.0362 11.1883 12.0362 10.2702C12.0362 9.35207 11.287 8.60283 10.3689 8.60283ZM15.3697 10.2702C15.3697 9.57972 15.3759 8.89552 15.3372 8.20631C15.2984 7.40579 15.1158 6.69532 14.5304 6.10994C13.9437 5.5233 13.2345 5.34193 12.434 5.30316C11.7435 5.26438 11.0593 5.27064 10.3701 5.27064C9.67969 5.27064 8.99549 5.26438 8.30629 5.30316C7.50576 5.34193 6.7953 5.52455 6.20991 6.10994C5.62328 6.69657 5.44191 7.40579 5.40313 8.20631C5.36436 8.89677 5.37061 9.58097 5.37061 10.2702C5.37061 10.9594 5.36436 11.6448 5.40313 12.334C5.44191 13.1346 5.62453 13.845 6.20991 14.4304C6.79655 15.017 7.50576 15.1984 8.30629 15.2372C8.99674 15.276 9.68094 15.2697 10.3701 15.2697C11.0606 15.2697 11.7448 15.276 12.434 15.2372C13.2345 15.1984 13.945 15.0158 14.5304 14.4304C15.117 13.8438 15.2984 13.1346 15.3372 12.334C15.3772 11.6448 15.3697 10.9606 15.3697 10.2702ZM10.3689 12.8356C8.94921 12.8356 7.80346 11.6899 7.80346 10.2702C7.80346 8.85049 8.94921 7.70474 10.3689 7.70474C11.7886 7.70474 12.9343 8.85049 12.9343 10.2702C12.9343 11.6899 11.7886 12.8356 10.3689 12.8356ZM13.0394 8.19881C12.7079 8.19881 12.4403 7.93113 12.4403 7.59967C12.4403 7.2682 12.7079 7.00052 13.0394 7.00052C13.3709 7.00052 13.6385 7.2682 13.6385 7.59967C13.6386 7.67837 13.6232 7.75633 13.5931 7.82907C13.5631 7.9018 13.5189 7.96789 13.4633 8.02355C13.4076 8.0792 13.3415 8.12333 13.2688 8.1534C13.1961 8.18348 13.1181 8.19891 13.0394 8.19881Z"
          fill="white"/>
</svg>
