<svg width="50" height="50" viewBox="0 0 50 50" fill="none" xmlns="http://www.w3.org/2000/svg">
    <circle cx="25" cy="25" r="25" fill="#BDBAA4"/>
    <circle cx="25" cy="25" r="15" fill="white"/>
    <path d="M19.5556 32H30.4444C30.857 32 31.2527 31.8361 31.5444 31.5444C31.8361 31.2527 32 30.857 32 30.4444V21.8889L28.1111 18H19.5556C19.143 18 18.7473 18.1639 18.4556 18.4556C18.1639 18.7473 18 19.143 18 19.5556V30.4444C18 30.857 18.1639 31.2527 18.4556 31.5444C18.7473 31.8361 19.143 32 19.5556 32ZM21.1111 19.5556H24.2222V21.1111H25.7778V19.5556H27.3333V22.6667H21.1111V19.5556ZM21.1111 25.7778H28.8889V30.4444H21.1111V25.7778Z"
          fill="#007271"/>
</svg>
