<svg width="47" height="58" viewBox="0 0 47 58" fill="none" xmlns="http://www.w3.org/2000/svg">
    <g opacity="0.5">
        <path d="M34.9956 9.3805C34.9956 6.54354 33.0157 4.65224 30.2666 4.65224H28.2792C27.8416 2.49489 25.9323 0.869629 23.646 0.869629C21.3597 0.869629 19.4492 2.49489 19.0129 4.65224H17.0254C14.1881 4.65224 12.2965 6.54354 12.2965 9.3805V12.2175H34.9956V9.3805Z"
              fill="#005F5E"/>
        <path d="M44.4535 6.54346H38.321C38.6123 7.4248 38.7788 8.3755 38.7788 9.38041V12.2174H40.6703V16V48.1521V51.9348H36.8872H10.4049H6.62169V48.1521V16V12.2174H8.51328V9.38041C8.51328 8.37046 8.67092 7.42228 8.95339 6.54346H2.83851C1.79183 6.54346 0.946915 7.39076 0.946915 8.43476V55.7174C0.946915 56.7639 1.79183 57.6087 2.83851 57.6087H44.4535C45.499 57.6087 46.3451 56.7639 46.3451 55.7174V8.43476C46.3451 7.39076 45.499 6.54346 44.4535 6.54346Z"
              fill="#005F5E"/>
        <path d="M10.4049 16V48.1522H36.8872V16H10.4049ZM31.2225 42.4783H16.0897C15.0456 42.4783 14.1981 41.6335 14.1981 40.587C14.1981 39.543 15.0456 38.6956 16.0897 38.6956H31.2225C32.2666 38.6956 33.1141 39.543 33.1141 40.587C33.1141 41.6335 32.2666 42.4783 31.2225 42.4783ZM31.2225 33.0217H16.0897C15.0456 33.0217 14.1981 32.177 14.1981 31.1304C14.1981 30.0864 15.0456 29.2391 16.0897 29.2391H31.2225C32.2666 29.2391 33.1141 30.0864 33.1141 31.1304C33.1141 32.177 32.2666 33.0217 31.2225 33.0217ZM31.2225 23.5652H16.0897C15.0456 23.5652 14.1981 22.7204 14.1981 21.6739C14.1981 20.6299 15.0456 19.7826 16.0897 19.7826H31.2225C32.2666 19.7826 33.1141 20.6299 33.1141 21.6739C33.1141 22.7204 32.2666 23.5652 31.2225 23.5652Z"
              fill="#005F5E"/>
    </g>
</svg>
