<svg width="20" height="20" viewBox="0 0 20 20" fill="none" xmlns="http://www.w3.org/2000/svg">
    <rect width="20" height="20" rx="1" fill="#CECAB3"/>
    <path d="M17.0113 6.5424C16.9282 6.24525 16.7697 5.97461 16.5513 5.75666C16.3329 5.53872 16.0619 5.38086 15.7646 5.29838C14.6485 5.00001 10.1618 5.00001 10.1618 5.00001C10.1618 5.00001 5.68365 4.99286 4.55594 5.29838C4.2591 5.38123 3.98864 5.53925 3.77072 5.75717C3.55279 5.97509 3.39477 6.24555 3.31193 6.5424C3.09999 7.68497 2.9956 8.84489 3.00014 10.0069C2.99807 11.1634 3.10244 12.3176 3.31193 13.4549C3.39504 13.7519 3.55311 14.0226 3.77096 14.2409C3.98881 14.4592 4.25912 14.6179 4.55594 14.7016C5.67202 15 10.1618 15 10.1618 15C10.1618 15 14.6373 15 15.7646 14.7016C16.0619 14.6182 16.3328 14.4598 16.5511 14.2414C16.7694 14.0231 16.9279 13.7522 17.0113 13.4549C17.2166 12.3183 17.3168 11.1624 17.3097 10.0069C17.3168 8.84389 17.2189 7.68621 17.0113 6.5424ZM8.72861 12.1483V7.85619L12.4633 10.0069L8.72861 12.1483Z"
          fill="#F2F2EB"/>
</svg>
